<svg xmlns="http://www.w3.org/2000/svg" width="67" height="51" viewBox="0 0 67 51">
  <g id="Group_179" data-name="Group 179" transform="translate(-10020 -1362)">
    <rect id="Rectangle_155" data-name="Rectangle 155" width="67" height="51" transform="translate(10020 1362)" fill="none"/>
    <path id="Intersection_9" data-name="Intersection 9" d="M11.655,51.955l.056-22.43a1.213,1.213,0,0,1,1.21-1.207h3.587a1.2,1.2,0,0,1,1.2,1.205l-.057,22.424a1.214,1.214,0,0,1-1.209,1.208l-3.587.005A1.206,1.206,0,0,1,11.655,51.955Zm7.676-.013.061-22.424A1.215,1.215,0,0,1,20.6,28.31l3.584,0a1.2,1.2,0,0,1,1.2,1.206l-.056,22.427a1.216,1.216,0,0,1-1.21,1.208H20.534A1.2,1.2,0,0,1,19.331,51.943Zm35.7-1.034.058-22.424A1.213,1.213,0,0,1,56.3,27.277l3.6,0a1.2,1.2,0,0,1,1.2,1.2L61.034,50.9a1.215,1.215,0,0,1-1.21,1.207l-3.587,0A1.206,1.206,0,0,1,55.031,50.909Zm8.024.849a1.2,1.2,0,0,1-.351-.851l.064-22.427a1.217,1.217,0,0,1,1.21-1.209l3.588-.007a1.2,1.2,0,0,1,1.2,1.2L68.7,50.9a1.217,1.217,0,0,1-1.21,1.208l-3.583.005A1.2,1.2,0,0,1,63.055,51.757ZM28.014,42.619l.018-5.79a1.216,1.216,0,0,1,1.211-1.208L51.8,35.6A1.2,1.2,0,0,1,53,36.8L52.99,42.6a1.215,1.215,0,0,1-1.21,1.208l-22.563.02A1.206,1.206,0,0,1,28.014,42.619Z" transform="translate(10013.289 1347.495)" fill="#d5d5d5"/>
  </g>
</svg>
