<svg xmlns="http://www.w3.org/2000/svg" width="67" height="51" viewBox="0 0 67 51">
  <g id="Group_181" data-name="Group 181" transform="translate(-10263 -1365)">
    <path id="Icon_map-laundry" data-name="Icon map-laundry" d="M4.32,8.807V36.094c0,1.189,1,2.636,2.232,2.636H33.416a2.841,2.841,0,0,0,2.444-2.636V8.807ZM20.058,30.462a8.444,8.444,0,0,1-8.581-8.3,8.444,8.444,0,0,1,8.581-8.3,8.444,8.444,0,0,1,8.581,8.3A8.443,8.443,0,0,1,20.058,30.462ZM33.416.72H6.552A2.091,2.091,0,0,0,4.32,2.746V7.19H35.86V2.746A2.291,2.291,0,0,0,33.416.72ZM14.833,5.572h-8.9V2.337h8.9Zm15.484-.226a1.8,1.8,0,0,1-1.826-1.769,1.828,1.828,0,0,1,3.655,0A1.8,1.8,0,0,1,30.317,5.346Z" transform="translate(10274.41 1367.981)" fill="#d5d5d5"/>
    <rect id="Rectangle_146" data-name="Rectangle 146" width="67" height="51" transform="translate(10263 1365)" fill="none"/>
  </g>
</svg>
