<svg xmlns="http://www.w3.org/2000/svg" width="67.5" height="51" viewBox="0 0 67.5 51">
  <g id="Group_185" data-name="Group 185" transform="translate(-10774.5 -1365)">
    <g id="Group_176" data-name="Group 176">
      <path id="Icon_awesome-dog" data-name="Icon awesome-dog" d="M34.875,6.75h-4.5l-.5-1.006A2.25,2.25,0,0,0,27.859,4.5h-3.77L22.171,2.582a1.125,1.125,0,0,0-1.921.8V13.913l9,3.214v-2.5H31.5a4.5,4.5,0,0,0,4.5-4.5V7.875A1.125,1.125,0,0,0,34.875,6.75ZM27,10.125A1.125,1.125,0,1,1,28.125,9,1.125,1.125,0,0,1,27,10.125ZM6.75,15.75A2.253,2.253,0,0,1,4.5,13.5a2.25,2.25,0,0,0-4.5,0,6.738,6.738,0,0,0,4.5,6.335v15.04A1.125,1.125,0,0,0,5.625,36h4.5a1.125,1.125,0,0,0,1.125-1.125V27H22.5v7.875A1.125,1.125,0,0,0,23.625,36h4.5a1.125,1.125,0,0,0,1.125-1.125V19.515L18.707,15.75Z" transform="translate(10774.5 1366.187)" fill="#d5d5d5"/>
      <path id="Icon_awesome-cat" data-name="Icon awesome-cat" d="M10.4,10.018a8.914,8.914,0,0,1,7.635,4.173V10.018a4.591,4.591,0,0,1,4.508-4.661,1.554,1.554,0,0,1,0,3.107,1.531,1.531,0,0,0-1.5,1.554V22.447a3.06,3.06,0,0,1-3.005,3.107H9.768a.764.764,0,0,1-.751-.777V24a1.529,1.529,0,0,1,1.5-1.554h1.5L6.011,17.786v6.991a.764.764,0,0,1-.751.777h-1.5a.764.764,0,0,1-.751-.777V14.769a5.77,5.77,0,0,0,1.5.22A6.074,6.074,0,0,0,10.4,10.018ZM3.005,5.357H6.011L9.016,2.25V8.775a4.586,4.586,0,0,1-4.508,4.661A4.586,4.586,0,0,1,0,8.775V2.25ZM6.387,9.241a.777.777,0,1,0-.751-.777A.764.764,0,0,0,6.387,9.241Zm-3.757,0a.777.777,0,1,0-.751-.777A.764.764,0,0,0,2.63,9.241Z" transform="translate(10817.699 1376.633)" fill="#d5d5d5"/>
    </g>
    <rect id="Rectangle_153" data-name="Rectangle 153" width="67" height="51" transform="translate(10775 1365)" fill="none"/>
  </g>
</svg>
