<svg xmlns="http://www.w3.org/2000/svg" width="25.204" height="25.204" viewBox="0 0 25.204 25.204">
  <path id="Icon_awesome-phone-alt" data-name="Icon awesome-phone-alt" d="M24.485,17.811l-5.513-2.363a1.181,1.181,0,0,0-1.378.34L15.152,18.77a18.247,18.247,0,0,1-8.723-8.723L9.412,7.606a1.179,1.179,0,0,0,.34-1.378L7.389.714A1.189,1.189,0,0,0,6.035.03L.916,1.212A1.181,1.181,0,0,0,0,2.363,22.839,22.839,0,0,0,22.841,25.2a1.181,1.181,0,0,0,1.152-.916l1.181-5.12a1.2,1.2,0,0,0-.69-1.359Z" transform="translate(0 0)" fill="#d5d5d5"/>
</svg>
