<svg xmlns="http://www.w3.org/2000/svg" width="67" height="51" viewBox="0 0 67 51">
  <g id="Group_186" data-name="Group 186" transform="translate(-10010 -1477)">
    <path id="Icon_awesome-cookie-bite" data-name="Icon awesome-cookie-bite" d="M35.9,17.987A8.995,8.995,0,0,1,27,9,8.994,8.994,0,0,1,18.013.106a9.279,9.279,0,0,0-5.605.9L7.547,3.484A9.3,9.3,0,0,0,3.484,7.549L1.016,12.392a9.327,9.327,0,0,0-.9,5.692l.849,5.363a9.318,9.318,0,0,0,2.613,5.13l3.851,3.85a9.284,9.284,0,0,0,5.112,2.606l5.394.854a9.275,9.275,0,0,0,5.662-.9l4.861-2.476a9.3,9.3,0,0,0,4.063-4.065l2.468-4.843A9.322,9.322,0,0,0,35.9,17.987ZM12.375,25.875a2.25,2.25,0,1,1,2.25-2.25A2.25,2.25,0,0,1,12.375,25.875Zm2.25-11.25a2.25,2.25,0,1,1,2.25-2.25A2.25,2.25,0,0,1,14.625,14.625Zm11.25,9a2.25,2.25,0,1,1,2.25-2.25A2.25,2.25,0,0,1,25.875,23.625Z" transform="translate(10025.5 1484.999)" fill="#d5d5d5"/>
    <rect id="Rectangle_149" data-name="Rectangle 149" width="67" height="51" transform="translate(10010 1477)" fill="none"/>
  </g>
</svg>
