<svg xmlns="http://www.w3.org/2000/svg" width="31.542" height="38.011" viewBox="0 0 31.542 38.011">
  <path id="Subtraction_6" data-name="Subtraction 6" d="M29.1,38.01H2.232a2.054,2.054,0,0,1-1.578-.872A2.964,2.964,0,0,1,0,35.373V8.087H31.541V35.373A2.846,2.846,0,0,1,29.1,38.01Zm-6.5-24.2a4.275,4.275,0,0,0-2.645,1.246,7.487,7.487,0,0,0-2.054,3.08c-.51,1.481-.891,4.338,2.293,6.829l-.556,6.862a.89.89,0,0,0,.886.964h2.075a.891.891,0,0,0,.89-.889V14.7A.891.891,0,0,0,22.592,13.806Zm-13.052,0c-.383,0-.823.176-.884.563a44.924,44.924,0,0,0-.6,4.775,3.918,3.918,0,0,0,2.554,3.878l-.479,8.827a.893.893,0,0,0,.89.938H13.4a.892.892,0,0,0,.89-.938l-.478-8.827a3.92,3.92,0,0,0,2.554-3.878,44.918,44.918,0,0,0-.6-4.774c-.061-.387-.5-.564-.885-.564-.41,0-.845.187-.9.6v5.234c-.022.064-.164.092-.294.092s-.281-.029-.3-.092c-.051-.934-.289-5.159-.3-5.257a.817.817,0,0,0-.887-.578.822.822,0,0,0-.889.578c0,.047-.063,1.123-.128,2.261l0,.056c-.067,1.184-.14,2.471-.166,2.94-.018.063-.166.092-.3.092s-.272-.028-.3-.092V14.411A.809.809,0,0,0,9.54,13.806Zm22-7.335H0V2.026A2.09,2.09,0,0,1,2.232,0H29.1a2.307,2.307,0,0,1,2.444,2.027V6.47ZM1.618,1.616V4.852h8.9V1.616ZM26,1.089a1.8,1.8,0,0,0-1.826,1.767,1.828,1.828,0,0,0,3.653,0A1.8,1.8,0,0,0,26,1.089Z" transform="translate(0.001 0.001)" fill="#d5d5d5"/>
</svg>
