<svg xmlns="http://www.w3.org/2000/svg" width="67" height="51" viewBox="0 0 67 51">
  <g id="Group_184" data-name="Group 184" transform="translate(-10643 -1365)">
    <g id="Icon_ionic-ios-wifi" data-name="Icon ionic-ios-wifi" transform="translate(10647.993 1365.249)">
      <path id="Path_28" data-name="Path 28" d="M28,6.75A37.992,37.992,0,0,0,2.54,16.9a.916.916,0,0,0-.034,1.31l3.068,3.206a.944.944,0,0,0,1.333.034,30.875,30.875,0,0,1,21.1-8.24,30.875,30.875,0,0,1,21.1,8.24.944.944,0,0,0,1.333-.034l3.068-3.206a.916.916,0,0,0-.034-1.31A38.094,38.094,0,0,0,28,6.75Z" transform="translate(0 0)" fill="#d5d5d5"/>
      <path id="Path_29" data-name="Path 29" d="M8.068,22.47l3.287,3.252a.942.942,0,0,0,1.287.034,17.876,17.876,0,0,1,23.651,0,.942.942,0,0,0,1.287-.034l3.287-3.252a.918.918,0,0,0-.034-1.345,24.508,24.508,0,0,0-32.754,0A.937.937,0,0,0,8.068,22.47Z" transform="translate(3.517 5.139)" fill="#d5d5d5"/>
      <path id="Path_30" data-name="Path 30" d="M20.748,22.8a9.364,9.364,0,0,0-6.827,2.931.919.919,0,0,0,.023,1.287l6.137,6.057a.943.943,0,0,0,1.333,0l6.137-6.057a.919.919,0,0,0,.023-1.287A9.408,9.408,0,0,0,20.748,22.8Z" transform="translate(7.248 10.18)" fill="#d5d5d5"/>
    </g>
    <rect id="Rectangle_154" data-name="Rectangle 154" width="67" height="51" transform="translate(10643 1365)" fill="none"/>
  </g>
</svg>
