<svg xmlns="http://www.w3.org/2000/svg" width="67" height="51" viewBox="0 0 67 51">
  <g id="Group_183" data-name="Group 183" transform="translate(-10513 -1365)">
    <g id="Icon_ionic-ios-desktop" data-name="Icon ionic-ios-desktop" transform="translate(10525.179 1370.157)">
      <path id="Path_26" data-name="Path 26" d="M27.6,31.718a.434.434,0,0,0-.358-.366l-1.9-.162a2.958,2.958,0,0,1-1.9-2.409l-.1-.656H15.507l-.1.647a2.973,2.973,0,0,1-1.9,2.409l-1.9.162a.465.465,0,0,0-.358.366.437.437,0,0,0,.434.494H27.163A.43.43,0,0,0,27.6,31.718Z" transform="translate(1.897 4.981)" fill="#d5d5d5"/>
      <path id="Path_27" data-name="Path 27" d="M39.787,5.1a2.057,2.057,0,0,0-1.447-.6H4.31a2.042,2.042,0,0,0-1.447.6A2.073,2.073,0,0,0,2.25,6.543V29.7a2.058,2.058,0,0,0,.613,1.447,2.017,2.017,0,0,0,1.43.6H38.348a2,2,0,0,0,1.43-.6,2.073,2.073,0,0,0,.613-1.447V6.543A2.029,2.029,0,0,0,39.787,5.1ZM21.321,29.7A.681.681,0,1,1,22,29.019.683.683,0,0,1,21.321,29.7ZM38.68,26.3H3.97a.342.342,0,0,1-.341-.341V6.884A1.025,1.025,0,0,1,4.651,5.862H38a1.025,1.025,0,0,1,1.022,1.022V25.955A.342.342,0,0,1,38.68,26.3Z" fill="#d5d5d5"/>
    </g>
    <rect id="Rectangle_144" data-name="Rectangle 144" width="67" height="51" transform="translate(10513 1365)" fill="none"/>
  </g>
</svg>
