<svg xmlns="http://www.w3.org/2000/svg" width="67" height="51" viewBox="0 0 67 51">
  <g id="Group_182" data-name="Group 182" transform="translate(-10390 -1365)">
    <path id="Icon_awesome-couch" data-name="Icon awesome-couch" d="M11.25,15.75v4.5h22.5v-4.5a4.5,4.5,0,0,1,4.5-4.5H40.5A6.752,6.752,0,0,0,33.75,4.5H11.25A6.752,6.752,0,0,0,4.5,11.25H6.75A4.5,4.5,0,0,1,11.25,15.75ZM40.5,13.5H38.25A2.248,2.248,0,0,0,36,15.75V22.5H9V15.75A2.248,2.248,0,0,0,6.75,13.5H4.5a4.485,4.485,0,0,0-2.25,8.374v8.5A1.128,1.128,0,0,0,3.375,31.5h4.5A1.128,1.128,0,0,0,9,30.375V29.25H36v1.125A1.128,1.128,0,0,0,37.125,31.5h4.5a1.128,1.128,0,0,0,1.125-1.125v-8.5A4.485,4.485,0,0,0,40.5,13.5Z" transform="translate(10401 1372.999)" fill="#d5d5d5"/>
    <rect id="Rectangle_145" data-name="Rectangle 145" width="67" height="51" transform="translate(10390 1365)" fill="none"/>
  </g>
</svg>
