<svg xmlns="http://www.w3.org/2000/svg" width="67" height="54.594" viewBox="0 0 67 54.594">
  <g id="Group_188" data-name="Group 188" transform="translate(-10263 -1473.406)">
    <g id="Group_175" data-name="Group 175" transform="translate(9102.607 617)">
      <g id="Subtraction_4" data-name="Subtraction 4" transform="translate(1176.123 870.141)" fill="none" stroke-linecap="round">
        <path d="M16.982,19.5a17.283,17.283,0,0,1-6.61-1.3,16.959,16.959,0,0,1-5.4-3.541A16.448,16.448,0,0,1,1.334,9.41,16.035,16.035,0,0,1,0,2.979,16.234,16.234,0,0,1,.275,0H33.689a16.23,16.23,0,0,1,.275,2.979A16.033,16.033,0,0,1,32.63,9.41a16.449,16.449,0,0,1-3.64,5.251,16.96,16.96,0,0,1-5.4,3.541A17.284,17.284,0,0,1,16.982,19.5Z" stroke="none"/>
        <path d="M 16.98194694519043 16.49999618530273 C 18.88103675842285 16.49999618530273 20.72101783752441 16.13911628723145 22.45078659057617 15.42736625671387 C 24.11781692504883 14.74145603179932 25.61428642272949 13.76017665863037 26.89860725402832 12.51079654693604 C 28.17717742919922 11.26699638366699 29.17988777160645 9.821186065673828 29.87887763977051 8.213505744934082 C 30.59657287597656 6.562829494476318 30.96185684204102 4.80885124206543 30.96470069885254 2.999996185302734 L 3.000013828277588 2.999996185302734 C 3.002856254577637 4.808910369873047 3.368111133575439 6.562919616699219 4.085737228393555 8.213596343994141 C 4.784677028656006 9.82127571105957 5.787307262420654 11.26708602905273 7.065756797790527 12.51085662841797 C 8.349987030029297 13.76022624969482 9.846346855163574 14.74149608612061 11.5133171081543 15.42739582061768 C 13.24295711517334 16.13912582397461 15.08286666870117 16.49999618530273 16.98194694519043 16.49999618530273 M 16.98194694519043 19.49999618530273 C 14.6893367767334 19.49999618530273 12.46533679962158 19.06319618225098 10.37172698974609 18.20170593261719 C 8.349516868591309 17.36962699890137 6.533397197723389 16.17840576171875 4.973816871643066 14.66115665435791 C 3.414237022399902 13.14388656616211 2.189796924591064 11.37703609466553 1.334496974945068 9.409696578979492 C 0.4489870369434357 7.372876167297363 -2.974853487103246e-06 5.209196090698242 -2.974853487103246e-06 2.978746175765991 C -2.974853487103246e-06 1.978606224060059 0.09265702217817307 0.9764061570167542 0.2753870189189911 -3.814697265625e-06 L 33.68928527832031 -3.814697265625e-06 C 33.87234878540039 0.9780262112617493 33.96471786499023 1.979976177215576 33.96471786499023 2.978746175765991 C 33.96471786499023 5.209166049957275 33.51567840576172 7.372856140136719 32.63008880615234 9.409696578979492 C 31.77471733093262 11.37703609466553 30.5501766204834 13.14388656616211 28.99048614501953 14.66115665435791 C 27.43080711364746 16.17840576171875 25.61458778381348 17.36962699890137 23.59230613708496 18.20170593261719 C 21.49860763549805 19.06319618225098 19.27455711364746 19.49999618530273 16.98194694519043 19.49999618530273 Z" stroke="none" fill="#d5d5d5"/>
      </g>
      <text id="_" data-name="~
~
~" transform="translate(1197.321 862.406) rotate(90)" fill="#d5d5d5" font-size="17" font-family="'\.AppleSystemUIFont'" font-weight="800"><tspan x="-5.679" y="0">~</tspan><tspan x="-5.679" y="9">~</tspan><tspan x="-5.679" y="18">~</tspan></text>
      <g id="Group_150" data-name="Group 150" transform="translate(1185.431 888.089)">
        <g id="Group_149" data-name="Group 149">
          <line id="Line_34" data-name="Line 34" x1="5.417" y2="13.542" transform="translate(0)" fill="none" stroke="#d5d5d5" stroke-linecap="round" stroke-width="3"/>
          <line id="Line_35" data-name="Line 35" x2="4.628" y2="10.411" transform="translate(10.834)" fill="none" stroke="#d5d5d5" stroke-linecap="round" stroke-width="3"/>
        </g>
        <g id="Ellipse_49" data-name="Ellipse 49" transform="translate(14.569 7.911)" fill="none" stroke="#d5d5d5" stroke-width="2">
          <circle cx="4" cy="4" r="4" stroke="none"/>
          <circle cx="4" cy="4" r="3" fill="none"/>
        </g>
      </g>
    </g>
    <rect id="Rectangle_151" data-name="Rectangle 151" width="67" height="51" transform="translate(10263 1477)" fill="none"/>
  </g>
</svg>
