<svg xmlns="http://www.w3.org/2000/svg" width="32.496" height="32.496" viewBox="0 0 32.496 32.496">
  <path id="Icon_feather-message-circle" data-name="Icon feather-message-circle" d="M33,17.956a13.267,13.267,0,0,1-1.425,6.016A13.456,13.456,0,0,1,19.54,31.413a13.267,13.267,0,0,1-6.016-1.425L4.5,33l3.008-9.024a13.267,13.267,0,0,1-1.425-6.016A13.456,13.456,0,0,1,13.524,5.925,13.267,13.267,0,0,1,19.54,4.5h.792A13.425,13.425,0,0,1,33,17.165Z" transform="translate(-2.5 -2.5)" fill="none" stroke="#fff" stroke-linecap="round" stroke-linejoin="round" stroke-width="4"/>
</svg>
