<svg xmlns="http://www.w3.org/2000/svg" width="110.145" height="98.605" viewBox="0 0 110.145 98.605">
  <path id="Icon_metro-paper-plane" data-name="Icon metro-paper-plane" d="M93.008,5.723,4.911,36.77c-1.417.5-1.731,1.722-.05,2.39,2,.8,18.945,7.589,18.945,7.589l11.224,4.5S89.109,11.536,89.837,11s1.587.474,1.053,1.053S51.615,54.529,51.615,54.529v.01l-2.255,2.51,2.989,1.607L77.208,72.04a2.544,2.544,0,0,0,3.752-1.667c.492-2.126,14.2-61.18,14.5-62.494.394-1.711-.738-2.754-2.451-2.15ZM34.93,78.215c0,1.23.694,1.572,1.652.7C37.833,77.776,50.8,66.136,50.8,66.136l-15.87-8.2V78.215Z" transform="matrix(0.951, 0.309, -0.309, 0.951, 20.999, -6.434)" fill="#26b770"/>
</svg>
