<svg xmlns="http://www.w3.org/2000/svg" width="81.622" height="80.993" viewBox="0 0 81.622 80.993">
  <g id="Group_159" data-name="Group 159" transform="translate(-3908.923 3608.627)">
    <g id="Icon_ionic-ios-home" data-name="Icon ionic-ios-home" transform="translate(3908.923 -3608.627)">
      <path id="Path_47" data-name="Path 47" d="M34.832,7.412a.678.678,0,0,0-.864,0L7.009,28.978a.726.726,0,0,0-.259.536V69.26a.347.347,0,0,0,.346.346H25.759a.347.347,0,0,0,.346-.346V45.067a.347.347,0,0,1,.346-.346h15.9a.347.347,0,0,1,.346.346V69.26a.347.347,0,0,0,.346.346H61.7a.347.347,0,0,0,.346-.346V29.514a.7.7,0,0,0-.259-.536Z" transform="translate(1.548 2.283)" fill="#ededed"/>
      <path id="Path_48" data-name="Path 48" d="M74.35,30.368,41.689,4.2a3.793,3.793,0,0,0-4.735,0L22.731,15.765V8.473a.347.347,0,0,0-.346-.346H12.017a.347.347,0,0,0-.346.346V24.406L4.293,30.472a2.418,2.418,0,0,0-.207,3.612,2.4,2.4,0,0,0,1.711.709,2.435,2.435,0,0,0,1.521-.536L39.1,8.68a.31.31,0,0,1,.225-.069.418.418,0,0,1,.225.069l31.78,25.472a2.435,2.435,0,0,0,1.521.536,2.452,2.452,0,0,0,2.437-2.558A2.456,2.456,0,0,0,74.35,30.368Z" transform="translate(-3.374 -3.375)" fill="#ededed"/>
    </g>
    <ellipse id="Ellipse_50" data-name="Ellipse 50" cx="16.018" cy="15.533" rx="16.018" ry="15.533" transform="translate(3958.508 -3558.699)" fill="#efefef"/>
    <path id="Icon_awesome-key" data-name="Icon awesome-key" d="M19.057,6.551a6.554,6.554,0,0,1-7.773,6.437l-.894,1.005a.893.893,0,0,1-.668.3H8.337v1.489a.893.893,0,0,1-.893.893H5.955v1.489a.893.893,0,0,1-.893.893H.893A.893.893,0,0,1,0,18.164V15.258a.893.893,0,0,1,.262-.632L6.284,8.6A6.551,6.551,0,1,1,19.057,6.551ZM12.506,4.764a1.787,1.787,0,1,0,1.787-1.787A1.787,1.787,0,0,0,12.506,4.764Z" transform="translate(3965.1 -3552.831)" fill="#fff"/>
  </g>
</svg>
