<svg xmlns="http://www.w3.org/2000/svg" width="71.645" height="67.096" viewBox="0 0 71.645 67.096">
  <g id="Group_160" data-name="Group 160" transform="translate(-3923.35 3809.096)">
    <path id="Icon_awesome-hand-holding" data-name="Icon awesome-hand-holding" d="M70.311,23.507a4.117,4.117,0,0,0-5.3,0L53.52,32.7a7.918,7.918,0,0,1-4.975,1.741H33.831a1.99,1.99,0,0,1,0-3.98h9.739a4.141,4.141,0,0,0,4.142-3.308,3.985,3.985,0,0,0-3.93-4.652H23.88a14.639,14.639,0,0,0-9.216,3.271L8.881,30.46H1.99A2,2,0,0,0,0,32.45V44.39a2,2,0,0,0,1.99,1.99H46.368a7.97,7.97,0,0,0,4.975-1.741L70.149,29.59A3.978,3.978,0,0,0,70.311,23.507Z" transform="translate(3923.35 -3788.38)" fill="#24b86f"/>
    <path id="Icon_awesome-key" data-name="Icon awesome-key" d="M28.678,9.858a9.863,9.863,0,0,1-11.7,9.686l-1.345,1.513a1.344,1.344,0,0,1-1,.451H12.546v2.24A1.344,1.344,0,0,1,11.2,25.093H8.962v2.24a1.344,1.344,0,0,1-1.344,1.344H1.344A1.344,1.344,0,0,1,0,27.333V22.961a1.345,1.345,0,0,1,.394-.951l9.063-9.063a9.859,9.859,0,1,1,19.221-3.09ZM18.82,7.169a2.689,2.689,0,1,0,2.689-2.689A2.689,2.689,0,0,0,18.82,7.169Z" transform="translate(3944.834 -3809.096)" fill="#24b86f"/>
  </g>
</svg>
