<svg xmlns="http://www.w3.org/2000/svg" width="34.335" height="34.335" viewBox="0 0 34.335 34.335">
  <path id="Icon_awesome-parking" data-name="Icon awesome-parking" d="M30.657,2.25H3.679A3.68,3.68,0,0,0,0,5.929V32.907a3.68,3.68,0,0,0,3.679,3.679H30.657a3.68,3.68,0,0,0,3.679-3.679V5.929A3.68,3.68,0,0,0,30.657,2.25ZM18.394,24.323H14.715V28a1.23,1.23,0,0,1-1.226,1.226H11.036A1.23,1.23,0,0,1,9.81,28V10.834a1.23,1.23,0,0,1,1.226-1.226h7.358a7.358,7.358,0,0,1,0,14.715Zm0-9.81H14.715v4.905h3.679a2.453,2.453,0,0,0,0-4.905Z" transform="translate(0 -2.25)" fill="#d5d5d5"/>
</svg>
